<!DOCTYPE svg PUBLIC "-//W3C//DTD SVG 1.1//EN" "http://www.w3.org/Graphics/SVG/1.1/DTD/svg11.dtd">

<!-- Uploaded to: SVG Repo, www.svgrepo.com, Transformed by: SVG Repo Mixer Tools -->
<svg fill="#246FE0" height="64px" width="64px" version="1.1" id="Layer_1" xmlns="http://www.w3.org/2000/svg" xmlns:xlink="http://www.w3.org/1999/xlink" viewBox="-16 -16 96.00 96.00" enable-background="new 0 0 64 64" xml:space="preserve" stroke="#246FE0" stroke-width="0.512">
<g id="SVGRepo_bgCarrier" stroke-width="0"/>
<g id="SVGRepo_tracerCarrier" stroke-linecap="round" stroke-linejoin="round"/>
<g id="SVGRepo_iconCarrier"> <g id="Mailbox"> <path d="M63.6124992,29.6123009l0.3055-0.2583008L49.9423981,12.8388996C48.9540977,11.6703997,47.5098,11,45.9794998,11 H17.9698009c-1.4981003,0-2.9121008,0.6557999-3.8784008,1.7993002L0.0831008,29.3540001l0.3049,0.2581005L0.0000008,30v17.9160004 C0.0000008,50.7192001,2.2842007,53,5.0918007,53h53.782299c1.3690987,0,2.6562004-0.5321999,3.6240005-1.4980011 C63.4668007,50.5360985,64,49.2504997,64,47.8818016V30L63.6124992,29.6123009z M15.6182003,14.0908003 C16.2040997,13.3975,17.0616131,13,17.9698009,13h28.0096989c0.9404984,0,1.8282013,0.4120998,2.4356003,1.1303997L60.9977989,29 H45.7784004l-1,1v6.8735008c0,0.9659004-0.7881012,1.7514992-1.7577896,1.7514992H21.0440006 c-1.0039005,0-1.8213005-0.8144989-1.8213005-1.8158989V30l-1-1H3.0022008L15.6182003,14.0908003z M62,47.8818016 c0,0.8334999-0.3241997,1.6161995-0.9140015,2.2040977C60.4952011,50.6753006,59.7099991,51,58.8740997,51H5.0918007 c-1.7045,0-3.0918-1.3833008-3.0918-3.0839996V31h15.2226992v5.8091011c0,2.1040001,1.713913,3.8158989,3.8213005,3.8158989 h21.9766102c2.0721893,0,3.7577896-1.6831017,3.7577896-3.7514992V31H62V47.8818016z"/> <path d="M17,25h30c0.5527992,0,1-0.4477997,1-1s-0.4472008-1-1-1H17c-0.5527,0-1,0.4477997-1,1S16.4473,25,17,25z"/> <path d="M23,19h18c0.5527992,0,1-0.4477997,1-1s-0.4472008-1-1-1H23c-0.5527,0-1,0.4477997-1,1S22.4473,19,23,19z"/> </g> </g>
</svg>