<!DOCTYPE svg PUBLIC "-//W3C//DTD SVG 1.1//EN" "http://www.w3.org/Graphics/SVG/1.1/DTD/svg11.dtd">
<!-- Uploaded to: SVG Repo, www.svgrepo.com, Transformed by: SVG Repo Mixer Tools -->
<svg width="64px" height="64px" viewBox="0 0 512.00 512.00" xmlns="http://www.w3.org/2000/svg" fill="#000000" transform="rotate(90)" stroke="#000000" stroke-width="0.00512">
<g id="SVGRepo_bgCarrier" stroke-width="0"/>
<g id="SVGRepo_tracerCarrier" stroke-linecap="round" stroke-linejoin="round"/>
<g id="SVGRepo_iconCarrier"> <path fill="var(--ci-primary-color, #93B874)" d="M256,144a64,64,0,1,0-64-64A64.072,64.072,0,0,0,256,144Zm0-96a32,32,0,1,1-32,32A32.036,32.036,0,0,1,256,48Z" class="ci-primary"/> <path fill="var(--ci-primary-color, #93B874)" d="M256,368a64,64,0,1,0,64,64A64.072,64.072,0,0,0,256,368Zm0,96a32,32,0,1,1,32-32A32.036,32.036,0,0,1,256,464Z" class="ci-primary"/> <path fill="var(--ci-primary-color, #93B874)" d="M256,192a64,64,0,1,0,64,64A64.072,64.072,0,0,0,256,192Zm0,96a32,32,0,1,1,32-32A32.036,32.036,0,0,1,256,288Z" class="ci-primary"/> </g>
</svg>