<!DOCTYPE svg PUBLIC "-//W3C//DTD SVG 1.1//EN" "http://www.w3.org/Graphics/SVG/1.1/DTD/svg11.dtd">

<!-- Uploaded to: SVG Repo, www.svgrepo.com, Transformed by: SVG Repo Mixer Tools -->
<svg width="64px" height="64px" viewBox="-2.4 -2.4 28.80 28.80" fill="none" xmlns="http://www.w3.org/2000/svg" stroke="#4B9244">
<g id="SVGRepo_bgCarrier" stroke-width="0"/>
<g id="SVGRepo_tracerCarrier" stroke-linecap="round" stroke-linejoin="round"/>
<g id="SVGRepo_iconCarrier"> <g id="Calendar / Calendar_Event"> <path id="Vector" d="M4 8H20M4 8V16.8002C4 17.9203 4 18.4801 4.21799 18.9079C4.40973 19.2842 4.71547 19.5905 5.0918 19.7822C5.5192 20 6.07899 20 7.19691 20H16.8031C17.921 20 18.48 20 18.9074 19.7822C19.2837 19.5905 19.5905 19.2842 19.7822 18.9079C20 18.4805 20 17.9215 20 16.8036V8M4 8V7.2002C4 6.08009 4 5.51962 4.21799 5.0918C4.40973 4.71547 4.71547 4.40973 5.0918 4.21799C5.51962 4 6.08009 4 7.2002 4H8M20 8V7.19691C20 6.07899 20 5.5192 19.7822 5.0918C19.5905 4.71547 19.2837 4.40973 18.9074 4.21799C18.4796 4 17.9203 4 16.8002 4H16M8 4H16M8 4V2M16 4V2M11.75 16C11.8881 16 12 15.8881 12 15.75V12.25C12 12.1119 11.8881 12 11.75 12H8.25C8.11193 12 8 12.1119 8 12.25V15.75C8 15.8881 8.11193 16 8.25 16H11.75Z" stroke="#4B9244" stroke-width="0.9600000000000002" stroke-linecap="round" stroke-linejoin="round"/> </g> </g>
</svg>